<?xml version="1.0"?>

<!DOCTYPE svg PUBLIC '-//W3C//DTD SVG 1.0//EN' 'http://www.w3.org/TR/2001/REC-SVG-20010904/DTD/svg10.dtd'>
<svg fill-opacity="1" xmlns:xlink="http://www.w3.org/1999/xlink" color-rendering="auto" color-interpolation="auto" stroke="#AAAAAA" text-rendering="auto" stroke-linecap="square" stroke-miterlimit="10" stroke-opacity="1" shape-rendering="auto" fill="#AAAAAA" stroke-dasharray="none" font-weight="normal" stroke-width="1" xmlns="http://www.w3.org/2000/svg" font-family="&apos;Dialog&apos;" font-style="normal" stroke-linejoin="miter" font-size="12" stroke-dashoffset="0" image-rendering="auto" width="285" height="340">
  <!--Unicode Character 'SHIP' (U+1F6A2)-->
  <defs id="genericDefs" />
  <g>
    <g>
      <path d="M275.3438 208.2656 L267.8906 208.2656 L267.8906 216.5625 Q268.875 217.125 270.9844 217.125 Q273.0938 217.125 274.3594 219.2344 Q273.375 221.3438 270.4219 223.7344 Q240.6094 248.4844 223.7344 290.5312 Q213.3281 316.4062 213.3281 323.5781 L213.3281 330.4688 Q213.1875 330.4688 213.1875 330.6094 Q213.1875 330.8906 214.0312 330.8906 Q217.125 330.8906 220.0781 324.8438 Q222.3281 320.2031 223.0312 315.9844 L229.2188 315.9844 Q236.3906 331.4531 247.2188 331.4531 Q255.0938 331.4531 259.7344 324.5625 Q260.7188 321.6094 262.6875 315.9844 L265.2188 315.9844 L265.2188 321.6094 Q265.2188 325.6875 261.2109 331.5938 Q257.2031 337.5 253.2656 338.2031 Q252.4219 338.3438 249.6094 338.3438 Q234.1406 338.3438 227.5312 324.4219 Q221.3438 338.3438 206.5781 338.3438 Q194.9062 338.3438 185.625 324.4219 Q185.0625 324.4219 184.5 325.4062 Q177.75 338.3438 162.5625 338.3438 Q157.0781 338.3438 150.75 334.4062 Q149.4844 333.7031 143.4375 324.4219 Q138.375 332.0156 138.0938 332.2969 Q135.8438 334.8281 129.6562 336.9375 Q125.5781 338.3438 122.625 338.3438 Q116.2969 338.3438 110.25 334.2656 Q104.2031 330.1875 101.6719 324.4219 Q91.5469 338.3438 80.2969 338.3438 Q55.9688 338.3438 59.7656 324.4219 Q59.4844 324.5625 59.2031 324.8438 Q54 332.5781 51.1875 334.8281 Q46.8281 338.3438 39.0938 338.3438 Q38.5312 338.3438 37.5469 338.3438 Q36.4219 338.4844 36 338.4844 Q29.6719 338.4844 25.1719 330.75 Q21.0938 323.8594 21.2344 317.1094 L21.2344 316.5469 Q21.7969 315.8438 23.0625 315.8438 Q24.6094 315.8438 25.875 319.9219 Q27.5625 324.9844 27.7031 325.125 Q32.3438 331.4531 36.9844 331.4531 Q51.4688 331.4531 57.6562 315.9844 L63.8438 315.9844 Q63.8438 320.0625 66.375 324.7031 Q69.1875 329.7656 72.7031 330.8906 L73.125 330.4688 Q73.2656 328.7812 73.2656 326.8125 Q73.2656 318.6562 71.8594 314.1562 Q54 255.5156 12.5156 219.9375 Q13.5 217.9688 18.5625 216.4219 L18.5625 208.2656 L11.5312 208.2656 L11.5312 205.3125 Q14.625 201.9375 15.6094 201.9375 L56.3906 201.9375 L56.3906 188.1562 Q58.0781 186.4688 58.9219 186.4688 L78.0469 186.4688 Q79.875 178.875 84.5156 165.0938 Q84.9375 164.25 88.0312 162.4922 Q91.125 160.7344 92.1094 160.7344 L118.125 160.7344 Q119.1094 153.8438 120.2344 137.9531 Q117 136.6875 113.7656 135.4219 Q111.0938 134.2969 108.5625 130.0781 Q107.7188 128.25 106.875 126.4219 Q105.6094 123.75 104.625 123.75 Q103.0781 123.75 100.0547 124.3125 Q97.0312 124.875 95.4844 124.875 Q83.1094 124.875 76.9219 113.4844 Q76.6406 113.0625 76.5 108.8438 Q76.5 105.0469 75.5156 105.0469 Q74.5312 105.0469 72.5625 105.5391 Q70.5938 106.0312 69.6094 106.0312 Q65.8125 106.0312 58.9219 103.7812 Q51.4688 101.25 49.6406 98.8594 Q44.5781 91.8281 43.4531 87.75 Q42.6094 84.5156 42.6094 74.6719 L50.4844 74.6719 Q50.3438 76.5 50.3438 78.1875 Q50.3438 87.1875 55.5469 93.2344 Q61.0312 99.7031 69.8906 99.7031 Q71.8594 99.7031 75.7266 98.6484 Q79.5938 97.5938 81.5625 97.5938 Q84.2344 97.5938 84.2344 109.4062 Q84.2344 112.3594 88.6641 116.1562 Q93.0938 119.9531 96.0469 119.9531 Q99.8438 119.9531 103.7812 118.8281 Q104.625 118.5469 106.5234 117.1406 Q108.4219 115.7344 109.125 115.7344 Q111.5156 115.7344 113.2031 120.9375 Q115.3125 127.8281 115.4531 128.1094 Q116.5781 129.7969 120.4453 131.8359 Q124.3125 133.875 126.2812 133.875 Q124.4531 133.875 130.5 132.0469 Q133.4531 131.2031 139.9219 131.2031 Q153 131.2031 156.375 132.0469 Q156.9375 132.1875 158.3438 133.0312 Q159.75 133.875 160.5938 133.875 Q166.5 133.875 171.4219 128.1094 Q173.9531 115.7344 177.75 115.7344 Q178.3125 115.7344 180.2812 117.1406 Q182.25 118.5469 183.0938 118.8281 Q187.1719 119.9531 190.8281 119.9531 Q193.6406 119.9531 197.5781 116.9297 Q201.5156 113.9062 202.3594 111.0938 Q202.6406 110.1094 202.6406 103.3594 Q202.6406 97.5938 205.0312 97.5938 Q207 97.5938 210.8672 98.6484 Q214.7344 99.7031 216.7031 99.7031 Q225.9844 99.7031 231.4688 93.375 Q236.6719 87.4688 236.6719 78.3281 Q236.6719 76.5 236.3906 74.6719 L243.7031 74.6719 L243.7031 85.0781 Q243.7031 84.375 242.8594 87.6094 Q237.9375 106.0312 217.2656 106.0312 Q215.0156 106.0312 211.0781 105.0469 Q210.7969 107.8594 209.8125 113.3438 Q209.1094 116.0156 203.9062 120.2344 Q198.7031 124.4531 195.8906 124.7344 Q194.0625 124.875 191.3906 124.875 Q189.9844 124.875 180.9844 123.75 Q179.0156 128.5312 173.5312 135.4219 Q171.4219 136.125 169.4531 136.6875 Q166.7812 137.6719 166.7812 139.5 Q166.7812 139.6406 168.1875 160.7344 Q192.7969 160.7344 194.9062 161.0156 Q201.0938 161.7188 203.0625 166.9219 Q206.1562 176.7656 209.3906 186.4688 L227.9531 186.4688 Q229.0781 186.4688 230.3438 188.1562 L230.3438 201.9375 L271.4062 201.9375 Q273.2344 203.625 275.3438 205.3125 L275.3438 208.2656 ZM264.0938 216.8438 L264.0938 208.4062 L261 208.4062 L261 216.8438 L264.0938 216.8438 ZM256.5 216.8438 L256.5 208.4062 L249.75 208.4062 L249.75 216.8438 L256.5 216.8438 ZM242.5781 216.8438 L242.5781 208.4062 L228.375 208.4062 L228.375 216.8438 L242.5781 216.8438 ZM221.7656 216.8438 L221.7656 208.4062 L207 208.4062 L207 216.8438 L221.7656 216.8438 ZM160.3125 151.1719 Q150.1875 147.7969 144.9844 147.7969 Q136.125 147.7969 126.7031 151.1719 Q126.7031 154.2656 126.5625 160.5938 L160.1719 160.5938 Q160.1719 154.5469 160.3125 151.1719 ZM199.2656 216.8438 L199.2656 208.4062 L179.5781 208.4062 L179.5781 216.8438 L199.2656 216.8438 ZM220.6406 201.7969 L220.6406 192.7969 L203.4844 192.7969 Q199.2656 192.7969 193.3594 168.1875 L93.5156 168.1875 Q92.3906 171.4219 90.2812 178.0312 Q86.3438 192.7969 82.8281 192.7969 L65.6719 192.7969 L65.6719 201.7969 L220.6406 201.7969 ZM172.5469 216.8438 L172.5469 208.4062 L147.5156 208.4062 L147.5156 216.8438 L172.5469 216.8438 ZM257.625 222.3281 L147.5156 222.3281 L147.5156 315 Q147.5156 321.1875 153.5625 326.3203 Q159.6094 331.4531 165.9375 331.4531 Q172.125 331.4531 176.7656 326.25 Q178.1719 324.7031 183.6562 315.8438 L187.3125 315.8438 Q191.9531 323.4375 192.7969 324.5625 Q197.0156 330.3281 200.3906 330.75 Q200.25 315.2812 212.4844 286.875 Q214.4531 281.3906 219.2344 270.8438 Q233.1562 245.6719 257.625 222.3281 ZM139.3594 216.8438 L139.3594 208.4062 L114.3281 208.4062 L114.3281 216.8438 L139.3594 216.8438 ZM107.2969 216.8438 L107.2969 208.4062 L87.0469 208.4062 L87.0469 216.8438 L107.2969 216.8438 ZM79.875 216.8438 L79.875 208.4062 L65.1094 208.4062 L65.1094 216.8438 L79.875 216.8438 ZM58.5 216.8438 L58.5 208.4062 L44.2969 208.4062 L44.2969 216.8438 L58.5 216.8438 ZM37.125 216.8438 L37.125 208.4062 L30.375 208.4062 L30.375 216.8438 L37.125 216.8438 ZM25.875 216.8438 L25.875 208.4062 L22.3594 208.4062 L22.3594 216.8438 L25.875 216.8438 ZM139.3594 316.2656 L139.3594 222.3281 L29.25 222.3281 Q44.4375 235.9688 59.3438 258.4688 Q62.4375 262.4062 67.5 270.8438 Q86.3438 310.3594 86.4844 330.8906 Q89.5781 330.3281 93.9375 324.5625 Q97.0312 320.2031 100.125 315.8438 L103.3594 315.8438 Q104.0625 315.8438 105.0469 318.375 Q110.3906 331.4531 120.9375 331.4531 Q130.2188 331.4531 135.9844 323.8594 Q139.3594 319.5 139.3594 316.2656 ZM186.4688 181.4062 L100.9688 181.4062 Q100.9688 173.6719 100.9688 173.6719 L184.7812 173.6719 Q185.9062 178.3125 186.4688 181.4062 ZM188.0156 194.3438 L97.7344 194.3438 Q98.2969 192.7969 99.4219 186.4688 L188.0156 186.4688 Q188.0156 186.4688 188.0156 194.3438 Z" stroke="none" />
    </g>
  </g>
</svg>
